<?xml version="1.0" encoding="utf-8"?>
<!-- Generator: Adobe Illustrator 16.0.0, SVG Export Plug-In . SVG Version: 6.00 Build 0)  -->
<!DOCTYPE svg PUBLIC "-//W3C//DTD SVG 1.1//EN" "http://www.w3.org/Graphics/SVG/1.1/DTD/svg11.dtd">
<svg version="1.1" id="圖層_1_拷貝" xmlns="http://www.w3.org/2000/svg" xmlns:xlink="http://www.w3.org/1999/xlink" x="0px"
	 y="0px" width="335px" height="263px" viewBox="0 0 335 263" enable-background="new 0 0 335 263" xml:space="preserve">
<g>
	<path fill-rule="evenodd" clip-rule="evenodd" fill="#282526" d="M203.462,257.082c-11.917-11.954-24.006-24.079-36.132-36.243
		c-12.087,11.995-24.229,24.043-36.083,35.807C89.371,214.769,47.562,172.959,6,131.398C47.363,90.035,89.168,48.23,130.921,6.479
		c11.716,11.662,23.894,23.785,36.26,36.095C179.633,30.111,191.806,17.929,203.726,6c42.053,42.052,83.871,83.87,125.432,125.431
		C287.672,172.902,245.854,214.705,203.462,257.082z M294.223,131.858c-30.106-30.245-60.218-60.495-89.669-90.081
		c-6.16,6.118-12.445,12.361-19.626,19.495c20.254,20.253,40.83,40.828,60.92,60.917c-52.046,0-104.871,0-158.158,0
		c20.923-21.013,41.451-41.629,61.871-62.137c-6.302-6.33-12.64-12.697-19.519-19.607c-29.88,30.535-59.821,61.132-88.857,90.804
		c29.281,29.954,59.206,60.566,88.919,90.962c6.839-6.797,13.143-13.063,19.949-19.827c-20.511-20.513-41.265-41.268-62.051-62.056
		c53.097,0,106.11,0,159.827,0c-21.195,21.194-41.957,41.951-62.102,62.094c6.552,6.593,12.805,12.882,18.915,19.026
		C234.461,191.626,264.585,161.5,294.223,131.858z M189.196,163.607c-15.093,0-28.951,0-43.638,0
		c7.81,7.493,15.077,14.464,21.333,20.467C174.272,177.301,181.385,170.774,189.196,163.607z M188.882,99.097
		c-7.581-7.057-14.638-13.627-21.893-20.38c-6.385,6.126-13.581,13.03-21.241,20.38C160.374,99.097,174.217,99.097,188.882,99.097z"
		/>
</g>
</svg>
